<?xml version="1.0" encoding="UTF-8"?>
<svg width="32" height="32" version="1.1" viewBox="0 0 8.5 8.5" xmlns="http://www.w3.org/2000/svg">
 <g fill="#f60" stroke-width=".26">
  <path d="m3.7 1.2v0.69q-0.29 0-0.45 0.082-0.16 0.079-0.14 0.32l0.097 0.93q0.038 0.35-0.079 0.57-0.11 0.22-0.35 0.33-0.23 0.11-0.55 0.16 0.34 0.05 0.57 0.16t0.34 0.33q0.11 0.21 0.069 0.57l-0.097 0.93q-0.022 0.24 0.14 0.32 0.16 0.082 0.45 0.082v0.69q-0.87 0-1.2-0.26-0.35-0.26-0.28-0.9l0.094-0.9q0.025-0.24-0.082-0.37-0.1-0.14-0.31-0.19-0.2-0.057-0.47-0.057v-0.8q0.26 0 0.47-0.053 0.2-0.057 0.31-0.19 0.11-0.14 0.082-0.37l-0.094-0.89q-0.069-0.65 0.28-0.91 0.35-0.26 1.2-0.26z"/>
  <path d="m4.7 1.2q0.87 0 1.2 0.26 0.35 0.26 0.29 0.9l-0.094 0.9q-0.025 0.24 0.082 0.37 0.11 0.14 0.31 0.19 0.2 0.053 0.47 0.053v0.8q-0.26 0-0.47 0.057-0.2 0.053-0.31 0.19-0.11 0.14-0.082 0.37l0.094 0.89q0.072 0.64-0.28 0.91-0.35 0.26-1.2 0.26v-0.69q0.29 0 0.45-0.082 0.16-0.079 0.14-0.32l-0.097-0.93q-0.038-0.36 0.075-0.57 0.12-0.22 0.35-0.33 0.24-0.12 0.55-0.16-0.34-0.05-0.57-0.16t-0.34-0.33-0.069-0.57l0.097-0.93q0.025-0.24-0.14-0.32-0.16-0.082-0.45-0.082z"/>
  <path d="m6.7 5.8q0-0.19 0.094-0.35t0.25-0.25q0.16-0.097 0.35-0.097t0.35 0.097q0.16 0.094 0.25 0.25 0.094 0.16 0.094 0.35t-0.094 0.35-0.25 0.25q-0.16 0.097-0.35 0.097t-0.35-0.097q-0.16-0.094-0.25-0.25-0.094-0.16-0.094-0.35z"/>
  <path d="m0.41 5.8q0-0.19 0.094-0.35t0.25-0.25q0.16-0.097 0.35-0.097 0.19 0 0.35 0.097 0.16 0.094 0.25 0.25 0.094 0.16 0.094 0.35t-0.094 0.35-0.25 0.25q-0.16 0.097-0.35 0.097t-0.35-0.097q-0.16-0.094-0.25-0.25-0.094-0.16-0.094-0.35z"/>
  <path d="m0.41 2.6q0-0.19 0.094-0.35t0.25-0.25q0.16-0.097 0.35-0.097 0.19 0 0.35 0.097 0.16 0.094 0.25 0.25 0.094 0.16 0.094 0.35t-0.094 0.35-0.25 0.25q-0.16 0.097-0.35 0.097t-0.35-0.097q-0.16-0.094-0.25-0.25-0.094-0.16-0.094-0.35z"/>
 </g>
</svg>
